<svg width="28" height="40" viewBox="0 0 28 40" fill="none" xmlns="http://www.w3.org/2000/svg">
<path d="M14.0205 3.49023C4.74034 3.49023 -0.00621484 14.7733 6.60156 21.374H6.60254C8.58437 23.3509 11.2188 24.4414 14.0205 24.4414C16.8221 24.4413 19.4567 23.3508 21.4385 21.374C28.0528 14.7669 23.2937 3.49055 14.0205 3.49023ZM12.4658 27.3652L12.0674 27.2822C10.1136 26.8784 6.57634 25.6055 4.45508 23.4873C-4.06457 14.9814 2.13732 0.500367 14.0137 0.5C25.9137 0.5 32.0502 14.9781 23.5293 23.4873C22.4257 24.5883 21.4859 25.4257 20.3486 26.0439C19.2174 26.6589 17.8603 27.0729 15.9111 27.2744L15.4619 27.3213V32.5195H21.4561V35.5098H15.4619V39.5H12.4658V35.5098H6.47168V32.5195H12.4658V27.3652Z" fill="#00ADB5" stroke="#00ADB5"/>
</svg>
