<svg width="40" height="40" viewBox="0 0 40 40" fill="none" xmlns="http://www.w3.org/2000/svg">
<path fill-rule="evenodd" clip-rule="evenodd" d="M14 36.01C8.486 36.01 4 31.524 4 26.01C4 20.496 8.486 16.01 14 16.01C19.514 16.01 24 20.496 24 26.01C24 31.524 19.514 36.01 14 36.01ZM24 0V4H33.172L22.372 14.804C20.036 13.054 17.144 12.0081 14 12.0081C6.268 12.0081 0 18.2761 0 26.0081C0 33.7401 6.268 40.01 14 40.01C21.732 40.01 28 33.742 28 26.01C28 22.866 26.95 19.974 25.202 17.636L36 6.83789V16H40V0H24Z" fill="#00ADB5"/>
</svg>
