<svg width="100" height="100" viewBox="0 0 100 100" fill="none" xmlns="http://www.w3.org/2000/svg">
<path d="M83.333 66.6667H78.4163L74.9997 50H75.2913C76.3964 49.7569 77.3596 49.0847 77.9691 48.1314C78.5786 47.1781 78.7845 46.0217 78.5413 44.9167C78.2982 43.8116 77.6261 42.8484 76.6728 42.2389C75.7195 41.6294 74.5631 41.4236 73.458 41.6667L36.583 50H36.1663L14.0413 57.5833C12.3784 58.1353 10.9317 59.1973 9.90693 60.6185C8.88215 62.0398 8.33142 63.7479 8.33301 65.5V70.8333C8.33301 71.9384 8.772 72.9982 9.5534 73.7796C10.3348 74.561 11.3946 75 12.4997 75C13.6047 75 14.6646 74.561 15.446 73.7796C16.2274 72.9982 16.6663 71.9384 16.6663 70.8333V65.5L38.6247 58.3333L66.958 51.9583L70.2497 68.625C70.6307 70.5433 71.6743 72.2665 73.1978 73.4929C74.7213 74.7193 76.6276 75.3708 78.583 75.3333H83.333C84.4381 75.3333 85.4979 74.8944 86.2793 74.113C87.0607 73.3316 87.4997 72.2717 87.4997 71.1667C87.4997 70.0616 87.0607 69.0018 86.2793 68.2204C85.4979 67.439 84.4381 67 83.333 67V66.6667Z" fill="#EEEEEE"/>
<path d="M37.4996 60.4167C36.6789 60.5069 35.8484 60.4347 35.0555 60.204C34.2627 59.9733 33.5231 59.5887 32.8789 59.0722C31.5778 58.029 30.7445 56.5118 30.5621 54.8542C30.3798 53.1966 30.8634 51.5344 31.9066 50.2334C32.9498 48.9323 34.467 48.099 36.1246 47.9167L69.458 40.375C70.2596 40.1944 71.0889 40.1735 71.8986 40.3135C72.7083 40.4534 73.4825 40.7514 74.177 41.1906C74.8715 41.6297 75.4727 42.2014 75.9463 42.8729C76.4199 43.5444 76.7566 44.3025 76.9371 45.1042C77.1177 45.9058 77.1386 46.7351 76.9987 47.5448C76.8587 48.3545 76.5607 49.1287 76.1215 49.8232C75.6824 50.5177 75.1107 51.1189 74.4393 51.5925C73.7678 52.0661 73.0096 52.4028 72.208 52.5833L38.8746 60.0833C38.4338 60.257 37.9711 60.3691 37.4996 60.4167Z" fill="#2CA9BC"/>
<path d="M79.166 50C86.0696 50 91.666 44.4036 91.666 37.5C91.666 30.5964 86.0696 25 79.166 25C72.2625 25 66.666 30.5964 66.666 37.5C66.666 44.4036 72.2625 50 79.166 50Z" fill="#EEEEEE"/>
</svg>
