<svg width="83" height="51" viewBox="0 0 83 51" fill="none" xmlns="http://www.w3.org/2000/svg">
<path d="M81.5391 38.0859L66.0802 22.6271C71.6053 21.8539 75.875 17.1099 75.875 11.375C75.875 5.10254 70.7725 0 64.5 0C58.2275 0 53.125 5.10254 53.125 11.375C53.125 15.7955 55.6646 19.6255 59.3566 21.5074C59.1664 28.7496 56.2651 35.5318 51.1221 40.6748L45.75 46.0469L28.4141 28.7109C27.6328 27.9297 26.3672 27.9297 25.5859 28.7109L9.0459 45.251C7.99805 46.2979 6.60645 46.875 5.125 46.875H2C0.895508 46.875 0 47.7705 0 48.875C0 49.9795 0.895508 50.875 2 50.875H5.125C7.6748 50.875 10.0713 49.8818 11.874 48.0791L27 32.9531L44.3359 50.2891C44.7266 50.6797 45.2383 50.875 45.75 50.875C46.2617 50.875 46.7734 50.6797 47.1641 50.2891L53.9502 43.5029C58.9502 38.5039 62.1016 32.1475 63.0625 25.2656L77.2969 39.5L71.5459 45.251C70.498 46.2979 69.1064 46.875 67.625 46.875C66.5205 46.875 65.625 47.7705 65.625 48.875C65.625 49.9795 66.5205 50.875 67.625 50.875C70.1748 50.875 72.5713 49.8818 74.374 48.0791L81.5391 40.9141C82.3203 40.1328 82.3203 38.8672 81.5391 38.0859ZM64.5 4C68.5664 4 71.875 7.30859 71.875 11.375C71.875 15.4414 68.5664 18.75 64.5 18.75C60.4336 18.75 57.125 15.4414 57.125 11.375C57.125 7.30859 60.4336 4 64.5 4Z" fill="#EEEEEE"/>
</svg>
