<svg width="100" height="100" viewBox="0 0 100 100" fill="none" xmlns="http://www.w3.org/2000/svg">
<path d="M62.5008 33.3333H46.0424C46.0553 32.3346 45.709 31.3645 45.0665 30.5997C44.4241 29.8349 43.5284 29.3264 42.5424 29.1666C41.4484 29.0121 40.3379 29.2984 39.4549 29.9626C38.572 30.6267 37.989 31.6144 37.8341 32.7083L33.3341 64C33.2585 64.5541 33.2953 65.1178 33.4422 65.6575C33.5892 66.1971 33.8432 66.7016 34.1893 67.141C34.5353 67.5803 34.9663 67.9455 35.4564 68.2148C35.9466 68.4841 36.486 68.6519 37.0424 68.7083L53.7091 70.375L50.4591 86.6666C50.3367 87.2059 50.3229 87.7641 50.4185 88.3087C50.514 88.8533 50.717 89.3735 51.0157 89.8389C51.3143 90.3042 51.7025 90.7055 52.1578 91.0193C52.6131 91.3331 53.1263 91.5532 53.6674 91.6667H54.4591C55.4339 91.6863 56.3847 91.3635 57.146 90.7545C57.9073 90.1454 58.431 89.2886 58.6258 88.3333L61.8758 72C62.1023 70.861 62.0883 69.6873 61.8347 68.554C61.581 67.4208 61.0933 66.3531 60.4028 65.4194C59.7124 64.4857 58.8344 63.7066 57.8252 63.1321C56.8159 62.5576 55.6978 62.2004 54.5424 62.0833L42.3341 60.875L45.0008 41.6666C45.2782 41.6862 45.5567 41.6862 45.8341 41.6666H62.5008C63.6058 41.6666 64.6656 41.2277 65.447 40.4463C66.2284 39.6649 66.6674 38.6051 66.6674 37.5C66.6674 36.3949 66.2284 35.3351 65.447 34.5537C64.6656 33.7723 63.6058 33.3333 62.5008 33.3333Z" fill="#EEEEEE"/>
<path d="M37.792 68.75H36.917C36.1043 68.6326 35.3228 68.3562 34.6169 67.9367C33.9111 67.5171 33.2949 66.9626 32.8035 66.3048C32.3121 65.647 31.9551 64.8988 31.7529 64.1029C31.5508 63.3071 31.5074 62.4793 31.6253 61.6667L35.792 32.5C35.9069 31.6792 36.1823 30.8891 36.6026 30.1748C37.0228 29.4605 37.5797 28.836 38.2413 28.3369C39.5775 27.3289 41.2594 26.8929 42.917 27.125C43.7378 27.2399 44.5278 27.5154 45.2422 27.9356C45.9565 28.3559 46.581 28.9127 47.0801 29.5743C47.5792 30.2359 47.9432 30.9894 48.1511 31.7916C48.359 32.5939 48.4069 33.4292 48.292 34.25L44.1253 63.4167C43.8937 64.9215 43.1242 66.2912 41.9596 67.2719C40.795 68.2527 39.3143 68.7778 37.792 68.75Z" fill="#2CA9BC"/>
<path d="M45.834 33.3333C52.7375 33.3333 58.334 27.7369 58.334 20.8333C58.334 13.9298 52.7375 8.33331 45.834 8.33331C38.9304 8.33331 33.334 13.9298 33.334 20.8333C33.334 27.7369 38.9304 33.3333 45.834 33.3333Z" fill="#EEEEEE"/>
</svg>
